<svg width="112" height="109" viewBox="0 0 112 109" fill="none" xmlns="http://www.w3.org/2000/svg">
<g filter="url(#filter0_d_66_9)">
<g filter="url(#filter1_d_66_9)">
<ellipse cx="56" cy="54.5" rx="52" ry="50.5" fill="#00450F"/>
</g>
<g filter="url(#filter2_d_66_9)">
<ellipse cx="56" cy="54.5" rx="48.1718" ry="46.7822" fill="#00A51A"/>
</g>
<g filter="url(#filter3_d_66_9)">
<ellipse cx="56" cy="54.5" rx="41.7914" ry="40.5859" fill="#00450F"/>
</g>
<g filter="url(#filter4_d_66_9)">
<path d="M75.11 47.7853L84.67 33.7853H86.63L77.07 47.7853H75.11ZM76.27 41.3253C75.6167 41.3253 75.0367 41.1653 74.53 40.8453C74.0234 40.5253 73.63 40.0786 73.35 39.5053C73.07 38.9319 72.93 38.2586 72.93 37.4853C72.93 36.7119 73.07 36.0386 73.35 35.4653C73.63 34.8919 74.0234 34.4453 74.53 34.1253C75.0367 33.8053 75.6167 33.6453 76.27 33.6453C76.95 33.6453 77.5367 33.8053 78.03 34.1253C78.5367 34.4453 78.93 34.8919 79.21 35.4653C79.49 36.0386 79.63 36.7119 79.63 37.4853C79.63 38.2586 79.49 38.9319 79.21 39.5053C78.93 40.0786 78.5367 40.5253 78.03 40.8453C77.5367 41.1653 76.95 41.3253 76.27 41.3253ZM76.29 39.9253C76.8234 39.9253 77.2367 39.7186 77.53 39.3053C77.8367 38.8786 77.99 38.2719 77.99 37.4853C77.99 36.6986 77.8367 36.0986 77.53 35.6853C77.2367 35.2586 76.8234 35.0453 76.29 35.0453C75.7567 35.0453 75.33 35.2586 75.01 35.6853C74.7034 36.1119 74.55 36.7119 74.55 37.4853C74.55 38.2586 74.7034 38.8586 75.01 39.2853C75.33 39.7119 75.7567 39.9253 76.29 39.9253ZM85.45 47.9253C84.7967 47.9253 84.2167 47.7653 83.71 47.4453C83.2034 47.1253 82.81 46.6786 82.53 46.1053C82.25 45.5319 82.11 44.8586 82.11 44.0853C82.11 43.3119 82.25 42.6386 82.53 42.0653C82.81 41.4919 83.2034 41.0453 83.71 40.7253C84.2167 40.4053 84.7967 40.2453 85.45 40.2453C86.13 40.2453 86.7167 40.4053 87.21 40.7253C87.7167 41.0453 88.11 41.4919 88.39 42.0653C88.67 42.6386 88.81 43.3119 88.81 44.0853C88.81 44.8586 88.67 45.5319 88.39 46.1053C88.11 46.6786 87.7167 47.1253 87.21 47.4453C86.7167 47.7653 86.13 47.9253 85.45 47.9253ZM85.45 46.5253C85.9834 46.5253 86.4034 46.3119 86.71 45.8853C87.0167 45.4586 87.17 44.8586 87.17 44.0853C87.17 43.3119 87.0167 42.7119 86.71 42.2853C86.4034 41.8586 85.9834 41.6453 85.45 41.6453C84.93 41.6453 84.51 41.8586 84.19 42.2853C83.8834 42.6986 83.73 43.2986 83.73 44.0853C83.73 44.8719 83.8834 45.4786 84.19 45.9053C84.51 46.3186 84.93 46.5253 85.45 46.5253Z" fill="white"/>
</g>
</g>
<defs>
<filter id="filter0_d_66_9" x="0" y="0" width="112" height="109" filterUnits="userSpaceOnUse" color-interpolation-filters="sRGB">
<feFlood flood-opacity="0" result="BackgroundImageFix"/>
<feColorMatrix in="SourceAlpha" type="matrix" values="0 0 0 0 0 0 0 0 0 0 0 0 0 0 0 0 0 0 127 0" result="hardAlpha"/>
<feMorphology radius="4" operator="dilate" in="SourceAlpha" result="effect1_dropShadow_66_9"/>
<feOffset/>
<feComposite in2="hardAlpha" operator="out"/>
<feColorMatrix type="matrix" values="0 0 0 0 1 0 0 0 0 1 0 0 0 0 1 0 0 0 0.01 0"/>
<feBlend mode="normal" in2="BackgroundImageFix" result="effect1_dropShadow_66_9"/>
<feBlend mode="normal" in="SourceGraphic" in2="effect1_dropShadow_66_9" result="shape"/>
</filter>
<filter id="filter1_d_66_9" x="0" y="0" width="112" height="109" filterUnits="userSpaceOnUse" color-interpolation-filters="sRGB">
<feFlood flood-opacity="0" result="BackgroundImageFix"/>
<feColorMatrix in="SourceAlpha" type="matrix" values="0 0 0 0 0 0 0 0 0 0 0 0 0 0 0 0 0 0 127 0" result="hardAlpha"/>
<feMorphology radius="4" operator="dilate" in="SourceAlpha" result="effect1_dropShadow_66_9"/>
<feOffset/>
<feComposite in2="hardAlpha" operator="out"/>
<feColorMatrix type="matrix" values="0 0 0 0 1 0 0 0 0 1 0 0 0 0 1 0 0 0 0.01 0"/>
<feBlend mode="normal" in2="BackgroundImageFix" result="effect1_dropShadow_66_9"/>
<feBlend mode="normal" in="SourceGraphic" in2="effect1_dropShadow_66_9" result="shape"/>
</filter>
<filter id="filter2_d_66_9" x="3.82825" y="3.71777" width="104.344" height="101.564" filterUnits="userSpaceOnUse" color-interpolation-filters="sRGB">
<feFlood flood-opacity="0" result="BackgroundImageFix"/>
<feColorMatrix in="SourceAlpha" type="matrix" values="0 0 0 0 0 0 0 0 0 0 0 0 0 0 0 0 0 0 127 0" result="hardAlpha"/>
<feMorphology radius="4" operator="dilate" in="SourceAlpha" result="effect1_dropShadow_66_9"/>
<feOffset/>
<feComposite in2="hardAlpha" operator="out"/>
<feColorMatrix type="matrix" values="0 0 0 0 1 0 0 0 0 1 0 0 0 0 1 0 0 0 0.01 0"/>
<feBlend mode="normal" in2="BackgroundImageFix" result="effect1_dropShadow_66_9"/>
<feBlend mode="normal" in="SourceGraphic" in2="effect1_dropShadow_66_9" result="shape"/>
</filter>
<filter id="filter3_d_66_9" x="10.2086" y="9.91412" width="91.5829" height="89.1718" filterUnits="userSpaceOnUse" color-interpolation-filters="sRGB">
<feFlood flood-opacity="0" result="BackgroundImageFix"/>
<feColorMatrix in="SourceAlpha" type="matrix" values="0 0 0 0 0 0 0 0 0 0 0 0 0 0 0 0 0 0 127 0" result="hardAlpha"/>
<feMorphology radius="4" operator="dilate" in="SourceAlpha" result="effect1_dropShadow_66_9"/>
<feOffset/>
<feComposite in2="hardAlpha" operator="out"/>
<feColorMatrix type="matrix" values="0 0 0 0 1 0 0 0 0 1 0 0 0 0 1 0 0 0 0.01 0"/>
<feBlend mode="normal" in2="BackgroundImageFix" result="effect1_dropShadow_66_9"/>
<feBlend mode="normal" in="SourceGraphic" in2="effect1_dropShadow_66_9" result="shape"/>
</filter>
<filter id="filter4_d_66_9" x="72.9299" y="33.6453" width="15.8801" height="14.28" filterUnits="userSpaceOnUse" color-interpolation-filters="sRGB">
<feFlood flood-opacity="0" result="BackgroundImageFix"/>
<feColorMatrix in="SourceAlpha" type="matrix" values="0 0 0 0 0 0 0 0 0 0 0 0 0 0 0 0 0 0 127 0" result="hardAlpha"/>
<feOffset/>
<feComposite in2="hardAlpha" operator="out"/>
<feColorMatrix type="matrix" values="0 0 0 0 1 0 0 0 0 1 0 0 0 0 1 0 0 0 0.01 0"/>
<feBlend mode="normal" in2="BackgroundImageFix" result="effect1_dropShadow_66_9"/>
<feBlend mode="normal" in="SourceGraphic" in2="effect1_dropShadow_66_9" result="shape"/>
</filter>
</defs>
</svg>
